<?xml version="1.0" encoding="UTF-8"?>
<!DOCTYPE svg PUBLIC "-//W3C//DTD SVG 1.1//EN" "http://www.w3.org/Graphics/SVG/1.1/DTD/svg11.dtd">
<!-- Creator: CorelDRAW 2020 (64-Bit) -->
<svg xmlns="http://www.w3.org/2000/svg" xml:space="preserve" width="144px" height="144px" version="1.1" style="shape-rendering:geometricPrecision; text-rendering:geometricPrecision; image-rendering:optimizeQuality; fill-rule:evenodd; clip-rule:evenodd"
viewBox="0 0 144 144"
 xmlns:xlink="http://www.w3.org/1999/xlink"
 xmlns:xodm="http://www.corel.com/coreldraw/odm/2003">
 <defs>
  <style type="text/css">
   <![CDATA[
    .fil1 {fill:#40A5FF}
    .fil0 {fill:url(#id0)}
   ]]>
  </style>
  <linearGradient id="id0" gradientUnits="userSpaceOnUse" x1="67.98" y1="50.59" x2="236.93" y2="50.59">
   <stop offset="0" style="stop-opacity:1; stop-color:#AAAAAA"/>
   <stop offset="1" style="stop-opacity:1; stop-color:white"/>
  </linearGradient>
 </defs>
 <g id="Layer_x0020_1">
  <metadata id="CorelCorpID_0Corel-Layer"/>
  <g id="_2524450219856">
   <polygon class="fil0" points="43.78,43.67 44.97,44.1 49.73,45.73 54.56,47.16 59.44,48.38 64.37,49.39 69.34,50.18 74.34,50.76 79.08,50.98 83.83,50.96 88.57,50.72 93.29,50.25 97.98,49.55 102.64,48.63 105.9,47.71 110.57,46.17 115.16,44.41 119.66,42.41 124.04,40.19 128.31,37.75 132.45,35.1 136.45,32.24 140.31,29.18 144,25.94 143.62,30.91 142.98,35.85 142.08,40.75 140.91,45.6 139.48,50.37 137.81,55.06 135.88,59.66 133.7,64.14 131.29,68.51 128.65,72.73 125.79,76.81 122.71,80.73 119.42,84.48 115.94,88.05 112.28,91.42 108.43,94.59 104.42,97.56 100.26,100.3 95.96,102.82 91.53,105.1 86.98,107.14 82.33,108.93 80.99,113.94 79.84,118.99 78.89,124.09 73.47,120.78 68.17,117.28 63.01,113.57 57.93,114.15 52.83,114.54 47.72,114.73 42.61,114.71 37.5,114.5 32.4,114.1 14.64,57.36 11.59,51.37 8.78,45.27 6.21,39.06 3.89,32.76 1.82,26.37 0,19.91 5.08,23.55 10.28,27 15.61,30.27 21.04,33.35 26.59,36.23 32.23,38.91 37.97,41.39 43.78,43.67 "/>
   <polygon class="fil1" points="44.97,44.1 49.56,45.78 54.23,47.24 58.97,48.46 63.76,49.45 68.6,50.19 73.46,50.7 78.35,50.96 83.24,50.98 88.13,50.75 93,50.29 97.84,49.58 102.64,48.63 107.22,47.3 111.72,45.76 116.15,43.99 120.48,42.01 124.71,39.82 128.83,37.43 132.83,34.84 136.7,32.06 140.42,29.09 144,25.94 141.75,28.74 139.35,31.42 136.81,33.96 134.13,36.36 131.33,38.61 126.54,42.3 121.93,46.21 117.5,50.33 113.26,54.64 109.22,59.14 105.39,63.82 101.78,68.67 98.38,73.68 95.22,78.83 92.3,84.12 89.61,89.54 87.18,95.08 85,100.72 83.08,106.45 81.41,112.27 80.02,118.15 78.89,124.09 73.17,120.6 67.59,116.87 62.16,112.94 56.89,108.79 51.79,104.44 46.86,99.89 42.12,95.15 37.56,90.23 33.21,85.13 29.06,79.87 25.11,74.44 21.39,68.87 17.88,63.15 14.61,57.3 11.57,51.32 8.76,45.23 6.2,39.03 3.88,32.74 1.82,26.36 0,19.91 5.2,23.64 10.54,27.18 16.01,30.53 21.59,33.66 27.29,36.59 33.09,39.31 38.98,41.81 "/>
  </g>
 </g>
</svg>
