<?xml version="1.0" encoding="UTF-8"?>
<!DOCTYPE svg PUBLIC "-//W3C//DTD SVG 1.1//EN" "http://www.w3.org/Graphics/SVG/1.1/DTD/svg11.dtd">
<!-- Creator: CorelDRAW 2020 (64-Bit) -->
<svg xmlns="http://www.w3.org/2000/svg" xml:space="preserve" width="512px" height="512px" version="1.1" style="shape-rendering:geometricPrecision; text-rendering:geometricPrecision; image-rendering:optimizeQuality; fill-rule:evenodd; clip-rule:evenodd"
viewBox="0 0 512 512"
 xmlns:xlink="http://www.w3.org/1999/xlink"
 xmlns:xodm="http://www.corel.com/coreldraw/odm/2003">
 <defs>
  <style type="text/css">
   <![CDATA[
    .fil1 {fill:#40A5FF}
    .fil0 {fill:url(#id0)}
   ]]>
  </style>
  <linearGradient id="id0" gradientUnits="userSpaceOnUse" x1="241.72" y1="179.89" x2="842.41" y2="179.89">
   <stop offset="0" style="stop-opacity:1; stop-color:#AAAAAA"/>
   <stop offset="1" style="stop-opacity:1; stop-color:white"/>
  </linearGradient>
 </defs>
 <g id="Layer_x0020_1">
  <metadata id="CorelCorpID_0Corel-Layer"/>
  <g id="_2524446700528">
   <polygon class="fil0" points="155.68,155.26 159.89,156.79 176.82,162.61 193.98,167.69 211.34,172.02 228.87,175.6 246.55,178.43 264.32,180.49 281.18,181.26 298.05,181.21 314.9,180.34 331.7,178.67 348.39,176.18 364.94,172.9 376.54,169.63 393.15,164.17 409.46,157.89 425.44,150.79 441.04,142.89 456.22,134.21 470.94,124.79 485.17,114.63 498.87,103.76 512,92.22 510.67,109.89 508.39,127.47 505.17,144.89 501.02,162.12 495.95,179.1 489.98,195.78 483.12,212.12 475.39,228.07 466.82,243.58 457.43,258.61 447.24,273.11 436.3,287.04 424.62,300.37 412.24,313.06 399.2,325.05 385.54,336.34 371.29,346.87 356.49,356.62 341.2,365.57 325.44,373.68 309.27,380.94 292.74,387.31 287.96,405.12 283.88,423.09 280.5,441.22 261.21,429.45 242.38,416.98 224.02,403.82 205.96,405.88 187.83,407.25 169.67,407.91 151.49,407.87 133.33,407.12 115.21,405.67 52.06,203.93 41.21,182.66 31.22,160.97 22.08,138.9 13.83,116.49 6.46,93.77 0,70.78 18.05,83.73 36.56,96.02 55.49,107.64 74.82,118.58 94.53,128.83 114.6,138.36 134.99,147.18 155.68,155.26 "/>
   <polygon class="fil1" points="159.89,156.79 176.22,162.79 192.83,167.97 209.67,172.31 226.71,175.82 243.9,178.47 261.2,180.26 278.57,181.19 295.97,181.26 313.35,180.46 330.66,178.79 347.87,176.27 364.94,172.9 381.21,168.19 397.23,162.69 412.97,156.41 428.38,149.37 443.42,141.59 458.07,133.08 472.29,123.87 486.04,113.97 499.28,103.41 512,92.22 504.01,102.19 495.48,111.71 486.44,120.74 476.92,129.27 466.95,137.26 449.94,150.42 433.54,164.32 417.79,178.95 402.71,194.29 388.35,210.29 374.72,226.92 361.87,244.16 349.81,261.96 338.57,280.29 328.16,299.1 318.63,318.37 309.97,338.06 302.22,358.11 295.38,378.5 289.47,399.17 284.51,420.09 280.5,441.22 260.16,428.78 240.32,415.56 221.02,401.56 202.28,386.82 184.14,371.34 166.62,355.17 149.75,338.32 133.56,320.82 118.07,302.69 103.31,283.97 89.29,264.69 76.05,244.86 63.59,224.53 51.94,203.73 41.13,182.48 31.15,160.82 22.04,138.79 13.8,116.41 6.45,93.73 0,70.78 18.5,84.06 37.48,96.65 56.91,108.54 76.77,119.69 97.02,130.11 117.65,139.77 138.61,148.67 "/>
  </g>
 </g>
</svg>
