<?xml version="1.0" encoding="UTF-8"?>
<!DOCTYPE svg PUBLIC "-//W3C//DTD SVG 1.1//EN" "http://www.w3.org/Graphics/SVG/1.1/DTD/svg11.dtd">
<!-- Creator: CorelDRAW 2020 (64-Bit) -->
<svg xmlns="http://www.w3.org/2000/svg" xml:space="preserve" width="192px" height="192px" version="1.1" style="shape-rendering:geometricPrecision; text-rendering:geometricPrecision; image-rendering:optimizeQuality; fill-rule:evenodd; clip-rule:evenodd"
viewBox="0 0 192 192"
 xmlns:xlink="http://www.w3.org/1999/xlink"
 xmlns:xodm="http://www.corel.com/coreldraw/odm/2003">
 <defs>
  <style type="text/css">
   <![CDATA[
    .fil1 {fill:#40A5FF}
    .fil0 {fill:url(#id0)}
   ]]>
  </style>
  <linearGradient id="id0" gradientUnits="userSpaceOnUse" x1="90.65" y1="67.46" x2="315.9" y2="67.46">
   <stop offset="0" style="stop-opacity:1; stop-color:#AAAAAA"/>
   <stop offset="1" style="stop-opacity:1; stop-color:white"/>
  </linearGradient>
 </defs>
 <g id="Layer_x0020_1">
  <metadata id="CorelCorpID_0Corel-Layer"/>
  <g id="_2524179145200">
   <polygon class="fil0" points="58.38,58.22 59.96,58.8 66.31,60.98 72.74,62.88 79.25,64.51 85.83,65.85 92.45,66.91 99.12,67.68 105.44,67.97 111.77,67.95 118.09,67.63 124.39,67 130.64,66.07 136.85,64.84 141.2,63.61 147.43,61.57 153.55,59.21 159.54,56.55 165.39,53.58 171.08,50.33 176.6,46.8 181.94,42.99 187.07,38.91 192,34.58 191.5,41.21 190.64,47.8 189.44,54.34 187.88,60.79 185.98,67.16 183.74,73.42 181.17,79.55 178.27,85.53 175.06,91.34 171.54,96.98 167.72,102.42 163.61,107.64 159.23,112.64 154.59,117.4 149.7,121.9 144.58,126.13 139.23,130.08 133.68,133.73 127.95,137.09 122.04,140.13 115.98,142.85 109.78,145.24 107.99,151.92 106.46,158.66 105.19,165.46 97.95,161.05 90.89,156.37 84.01,151.43 77.24,152.21 70.44,152.72 63.63,152.97 56.81,152.95 50,152.67 43.2,152.13 19.52,76.48 15.45,68.5 11.71,60.36 8.28,52.09 5.19,43.68 2.42,35.16 0,26.54 6.77,31.4 13.71,36.01 20.81,40.37 28.06,44.47 35.45,48.31 42.97,51.88 50.62,55.19 58.38,58.22 "/>
   <polygon class="fil1" points="59.96,58.8 66.08,61.05 72.31,62.99 78.63,64.62 85.02,65.93 91.46,66.93 97.95,67.6 104.46,67.95 110.99,67.97 117.5,67.67 124,67.05 130.45,66.1 136.85,64.84 142.95,63.07 148.96,61.01 154.86,58.65 160.64,56.01 166.28,53.1 171.78,49.91 177.11,46.45 182.26,42.74 187.23,38.78 192,34.58 189,38.32 185.8,41.89 182.41,45.28 178.84,48.48 175.11,51.47 168.73,56.41 162.58,61.62 156.67,67.11 151.02,72.86 145.63,78.86 140.52,85.1 135.7,91.56 131.18,98.23 126.96,105.11 123.06,112.16 119.49,119.39 116.24,126.77 113.33,134.29 110.77,141.94 108.55,149.69 106.69,157.54 105.19,165.46 97.56,160.79 90.12,155.83 82.88,150.58 75.86,145.06 69.05,139.25 62.48,133.19 56.16,126.87 50.09,120.31 44.28,113.51 38.74,106.49 33.48,99.26 28.52,91.82 23.85,84.2 19.48,76.4 15.42,68.43 11.68,60.31 8.27,52.05 5.18,43.66 2.42,35.15 0,26.54 6.94,31.52 14.06,36.24 21.34,40.7 28.79,44.88 36.38,48.79 44.12,52.42 51.98,55.75 "/>
  </g>
 </g>
</svg>
